<svg xmlns="http://www.w3.org/2000/svg" viewBox="0 0 64 64" fill="none">
  <rect width="64" height="64" rx="12" fill="#2563eb"/>
  <path d="M32 12c-2 0-3 1-3 3v10c-4 2-7 6-7 11 0 7 4.5 13 10 13s10-6 10-13c0-5-3-9-7-11V15c0-2-1-3-3-3z" fill="#fff" opacity="0.9"/>
  <circle cx="32" cy="36" r="3" fill="#2563eb"/>
  <line x1="29" y1="15" x2="29" y2="25" stroke="#2563eb" stroke-width="0.5"/>
  <line x1="31" y1="15" x2="31" y2="25" stroke="#2563eb" stroke-width="0.5"/>
  <line x1="33" y1="15" x2="33" y2="25" stroke="#2563eb" stroke-width="0.5"/>
  <line x1="35" y1="15" x2="35" y2="25" stroke="#2563eb" stroke-width="0.5"/>
</svg>
